<?xml version="1.0" encoding="UTF-8"?>
<!DOCTYPE svg PUBLIC "-//W3C//DTD SVG 1.1//EN" "http://www.w3.org/Graphics/SVG/1.1/DTD/svg11.dtd">
<!-- Creator: CorelDRAW 2020 (64-Bit) -->
<svg xmlns="http://www.w3.org/2000/svg" xml:space="preserve" width="382px" height="512px" version="1.1" style="shape-rendering:geometricPrecision; text-rendering:geometricPrecision; image-rendering:optimizeQuality; fill-rule:evenodd; clip-rule:evenodd"
viewBox="0 0 38.89 51.99"
 xmlns:xlink="http://www.w3.org/1999/xlink"
 xmlns:xodm="http://www.corel.com/coreldraw/odm/2003">
 <defs>
  <style type="text/css">
   <![CDATA[
    .fil0 {fill:#0263D1;fill-rule:nonzero}
    .fil2 {fill:white;fill-rule:nonzero}
    .fil1 {fill:white;fill-opacity:0.301961}
   ]]>
  </style>
 </defs>
 <g id="Vrstva_x0020_1">
  <metadata id="CorelCorpID_0Corel-Layer"/>
  <path class="fil0" d="M6.76 0l17.4 0 14.73 15.36 0 29.87c0,3.73 -3.03,6.76 -6.77,6.76l-25.36 0c-3.73,0 -6.76,-3.03 -6.76,-6.76l0 -38.47c0,-3.73 3.03,-6.76 6.76,-6.76z"/>
  <polygon class="fil1" points="24.14,0 24.14,15.24 38.89,15.24 "/>
  <path class="fil2" d="M26.3 27.05l-13.71 0c-0.63,0 -1.15,-0.51 -1.15,-1.14 0,-0.63 0.52,-1.14 1.15,-1.14l13.71 0c0.63,0 1.14,0.51 1.14,1.14 0,0.63 -0.51,1.14 -1.14,1.14l0 0zm-4.57 13.71l-9.14 0c-0.63,0 -1.15,-0.51 -1.15,-1.14 0,-0.63 0.52,-1.14 1.15,-1.14l9.14 0c0.63,0 1.14,0.51 1.14,1.14 0,0.63 -0.51,1.14 -1.14,1.14l0 0zm4.57 -4.57l-13.71 0c-0.63,0 -1.15,-0.51 -1.15,-1.14 0,-0.63 0.52,-1.14 1.15,-1.14l13.71 0c0.63,0 1.14,0.51 1.14,1.14 0,0.63 -0.51,1.14 -1.14,1.14l0 0zm0 -4.57l-13.71 0c-0.63,0 -1.15,-0.51 -1.15,-1.14 0,-0.63 0.52,-1.14 1.15,-1.14l13.71 0c0.63,0 1.14,0.51 1.14,1.14 0,0.63 -0.51,1.14 -1.14,1.14l0 0z"/>
 </g>
</svg>
