<?xml version="1.0" encoding="UTF-8"?>
<!DOCTYPE svg PUBLIC "-//W3C//DTD SVG 1.1//EN" "http://www.w3.org/Graphics/SVG/1.1/DTD/svg11.dtd">
<!-- Creator: CorelDRAW 2020 (64-Bit) -->
<svg xmlns="http://www.w3.org/2000/svg" xml:space="preserve" width="382px" height="512px" version="1.1" style="shape-rendering:geometricPrecision; text-rendering:geometricPrecision; image-rendering:optimizeQuality; fill-rule:evenodd; clip-rule:evenodd"
viewBox="0 0 17.69 23.65"
 xmlns:xlink="http://www.w3.org/1999/xlink"
 xmlns:xodm="http://www.corel.com/coreldraw/odm/2003">
 <defs>
  <style type="text/css">
   <![CDATA[
    .fil0 {fill:#00733B}
    .fil2 {fill:white}
    .fil1 {fill:white;fill-opacity:0.301961}
   ]]>
  </style>
 </defs>
 <g id="Vrstva_x0020_1">
  <metadata id="CorelCorpID_0Corel-Layer"/>
  <path class="fil0" d="M3.08 0l7.91 0 6.7 6.99 0 13.58c0,1.7 -1.38,3.08 -3.08,3.08l-11.53 0c-1.7,0 -3.08,-1.38 -3.08,-3.08l0 -17.49c0,-1.7 1.38,-3.08 3.08,-3.08z"/>
  <polygon class="fil1" points="10.98,0 10.98,6.93 17.69,6.93 "/>
  <path class="fil2" d="M5.21 17.35l3.14 0 0 1.19 -3.14 0 0 -1.19zm4.12 -6.08l3.15 0 0 1.18 -3.15 0 0 -1.18zm-4.12 0l3.14 0 0 1.18 -3.14 0 0 -1.18zm4.12 2l3.15 0 0 1.19 -3.15 0 0 -1.19zm-4.12 0l3.14 0 0 1.19 -3.14 0 0 -1.19zm4.12 2.08l3.15 0 0 1.19 -3.15 0 0 -1.19zm-4.12 0l3.14 0 0 1.19 -3.14 0 0 -1.19zm4.12 2l3.15 0 0 1.19 -3.15 0 0 -1.19z"/>
 </g>
</svg>
