<?xml version="1.0" encoding="UTF-8"?>
<!DOCTYPE svg PUBLIC "-//W3C//DTD SVG 1.1//EN" "http://www.w3.org/Graphics/SVG/1.1/DTD/svg11.dtd">
<!-- Creator: CorelDRAW 2020 (64-Bit) -->
<svg xmlns="http://www.w3.org/2000/svg" xml:space="preserve" width="382px" height="512px" version="1.1" style="shape-rendering:geometricPrecision; text-rendering:geometricPrecision; image-rendering:optimizeQuality; fill-rule:evenodd; clip-rule:evenodd"
viewBox="0 0 24.33 32.53"
 xmlns:xlink="http://www.w3.org/1999/xlink"
 xmlns:xodm="http://www.corel.com/coreldraw/odm/2003">
 <defs>
  <style type="text/css">
   <![CDATA[
    .fil0 {fill:#E03303}
    .fil2 {fill:white;fill-rule:nonzero}
    .fil1 {fill:white;fill-opacity:0.301961}
   ]]>
  </style>
 </defs>
 <g id="Vrstva_x0020_1">
  <metadata id="CorelCorpID_0Corel-Layer"/>
  <path class="fil0" d="M4.23 0l10.88 0 9.22 9.61 0 18.69c0,2.33 -1.9,4.23 -4.23,4.23l-15.87 0c-2.34,0 -4.23,-1.9 -4.23,-4.23l0 -24.07c0,-2.34 1.89,-4.23 4.23,-4.23z"/>
  <polygon class="fil1" points="15.1,0 15.1,9.53 24.33,9.53 "/>
  <path class="fil2" d="M11.76 16.13c-2.44,0.12 -4.38,2.15 -4.35,4.62 0.04,2.46 2.04,4.47 4.5,4.5 2.48,0.04 4.51,-1.9 4.62,-4.34 0.01,-0.12 -0.09,-0.22 -0.21,-0.22l-4.13 0c-0.12,0 -0.22,-0.1 -0.22,-0.21l0 -4.14c0,-0.12 -0.09,-0.21 -0.21,-0.21zm1.1 -0.67l0 4.13c0,0.12 0.09,0.21 0.21,0.21l4.14 0c0.12,0 0.21,-0.1 0.21,-0.22 -0.11,-2.34 -1.99,-4.22 -4.34,-4.33 -0.12,-0.01 -0.22,0.09 -0.22,0.21z"/>
 </g>
</svg>
