<?xml version="1.0" encoding="UTF-8"?>
<!DOCTYPE svg PUBLIC "-//W3C//DTD SVG 1.1//EN" "http://www.w3.org/Graphics/SVG/1.1/DTD/svg11.dtd">
<!-- Creator: CorelDRAW 2020 (64-Bit) -->
<svg xmlns="http://www.w3.org/2000/svg" xml:space="preserve" width="382px" height="512px" version="1.1" style="shape-rendering:geometricPrecision; text-rendering:geometricPrecision; image-rendering:optimizeQuality; fill-rule:evenodd; clip-rule:evenodd"
viewBox="0 0 24.33 32.53"
 xmlns:xlink="http://www.w3.org/1999/xlink"
 xmlns:xodm="http://www.corel.com/coreldraw/odm/2003">
 <defs>
  <style type="text/css">
   <![CDATA[
    .fil0 {fill:#251D36}
    .fil2 {fill:white;fill-rule:nonzero}
    .fil1 {fill:white;fill-opacity:0.301961}
   ]]>
  </style>
 </defs>
 <g id="Vrstva_x0020_1">
  <metadata id="CorelCorpID_0Corel-Layer"/>
  <path class="fil0" d="M4.23 0l10.88 0 9.22 9.61 0 18.69c0,2.33 -1.9,4.23 -4.23,4.23l-15.87 0c-2.34,0 -4.23,-1.9 -4.23,-4.23l0 -24.07c0,-2.34 1.89,-4.23 4.23,-4.23z"/>
  <polygon class="fil1" points="15.1,0 15.1,9.53 24.33,9.53 "/>
  <path class="fil2" d="M16.45 21.21l-8.57 0c-0.4,0 -0.72,0.32 -0.72,0.72 0,0.39 0.32,0.71 0.72,0.71l8.57 0c0.4,0 0.72,-0.32 0.72,-0.71 0,-0.4 -0.32,-0.72 -0.72,-0.72l0 0zm0 2.86l-8.57 0c-0.4,0 -0.72,0.32 -0.72,0.72 0,0.39 0.32,0.71 0.72,0.71l8.57 0c0.4,0 0.72,-0.32 0.72,-0.71 0,-0.4 -0.32,-0.72 -0.72,-0.72l0 0zm-4.36 -8.57l-4.21 0c-0.4,0 -0.72,0.31 -0.72,0.71 0,0.4 0.32,0.71 0.72,0.71l4.21 0c0.4,0 0.72,-0.31 0.72,-0.71 0,-0.4 -0.32,-0.71 -0.72,-0.71l0 0zm4.36 2.85l-8.57 0c-0.4,0 -0.72,0.32 -0.72,0.72 0,0.39 0.32,0.71 0.72,0.71l8.57 0c0.4,0 0.72,-0.32 0.72,-0.71 0,-0.4 -0.32,-0.72 -0.72,-0.72l0 0z"/>
 </g>
</svg>
