<?xml version="1.0" encoding="UTF-8"?>
<!DOCTYPE svg PUBLIC "-//W3C//DTD SVG 1.1//EN" "http://www.w3.org/Graphics/SVG/1.1/DTD/svg11.dtd">
<!-- Creator: CorelDRAW 2020 (64-Bit) -->
<svg xmlns="http://www.w3.org/2000/svg" xml:space="preserve" width="382px" height="512px" version="1.1" style="shape-rendering:geometricPrecision; text-rendering:geometricPrecision; image-rendering:optimizeQuality; fill-rule:evenodd; clip-rule:evenodd"
viewBox="0 0 29.93 40.02"
 xmlns:xlink="http://www.w3.org/1999/xlink"
 xmlns:xodm="http://www.corel.com/coreldraw/odm/2003">
 <defs>
  <style type="text/css">
   <![CDATA[
    .fil0 {fill:#FA0000}
    .fil2 {fill:white;fill-rule:nonzero}
    .fil1 {fill:white;fill-opacity:0.301961}
   ]]>
  </style>
 </defs>
 <g id="Vrstva_x0020_1">
  <metadata id="CorelCorpID_0Corel-Layer"/>
  <path class="fil0" d="M5.21 0l13.38 0 11.34 11.82 0 22.99c0,2.88 -2.33,5.21 -5.2,5.21l-19.52 0c-2.88,0 -5.21,-2.33 -5.21,-5.21l0 -29.6c0,-2.88 2.33,-5.21 5.21,-5.21z"/>
  <polygon class="fil1" points="18.58,0 18.58,11.73 29.93,11.73 "/>
  <path class="fil2" d="M14.97 18.16c-3.57,0 -6.47,2.9 -6.47,6.47 0,3.57 2.9,6.46 6.47,6.46 3.57,0 6.46,-2.89 6.46,-6.46 0,-3.57 -2.9,-6.46 -6.46,-6.47zm2.72 6.67c-0.05,0.09 -0.12,0.16 -0.21,0.21l0 0 -3.69 1.85c-0.23,0.11 -0.51,0.02 -0.62,-0.21 -0.04,-0.06 -0.05,-0.13 -0.05,-0.21l0 -3.69c0,-0.26 0.21,-0.46 0.46,-0.46 0.07,0 0.14,0.01 0.21,0.05l3.69 1.84c0.23,0.12 0.32,0.39 0.21,0.62z"/>
 </g>
</svg>
